<mxfile host="app.diagrams.net" modified="2023-02-14T08:56:34.985Z" agent="5.0 (Windows NT 10.0; Win64; x64) AppleWebKit/537.36 (KHTML, like Gecko) Chrome/109.0.0.0 Safari/537.36" version="20.8.5" etag="Z0Gr2iU01rLYn7vErVNx" type="github">
  <diagram id="yXJ9I1uE147pEn4ZUw__" name="第 1 页">
    <mxGraphModel dx="1434" dy="764" grid="1" gridSize="10" guides="1" tooltips="1" connect="1" arrows="1" fold="1" page="1" pageScale="1" pageWidth="827" pageHeight="1169" math="0" shadow="0">
      <root>
        <mxCell id="0" />
        <mxCell id="1" parent="0" />
        <mxCell id="2tCtooObjE5uAYLN7BbM-3" style="edgeStyle=orthogonalEdgeStyle;rounded=0;orthogonalLoop=1;jettySize=auto;html=1;exitX=1;exitY=0.5;exitDx=0;exitDy=0;exitPerimeter=0;entryX=0.067;entryY=0.488;entryDx=0;entryDy=0;entryPerimeter=0;" edge="1" parent="1" source="2tCtooObjE5uAYLN7BbM-1" target="2tCtooObjE5uAYLN7BbM-2">
          <mxGeometry relative="1" as="geometry">
            <Array as="points">
              <mxPoint x="310" y="320" />
              <mxPoint x="310" y="319" />
            </Array>
          </mxGeometry>
        </mxCell>
        <mxCell id="2tCtooObjE5uAYLN7BbM-5" style="edgeStyle=orthogonalEdgeStyle;rounded=0;orthogonalLoop=1;jettySize=auto;html=1;exitX=0.855;exitY=1;exitDx=0;exitDy=-4.35;exitPerimeter=0;entryX=0.75;entryY=0;entryDx=0;entryDy=0;entryPerimeter=0;" edge="1" parent="1" source="2tCtooObjE5uAYLN7BbM-1" target="2tCtooObjE5uAYLN7BbM-4">
          <mxGeometry relative="1" as="geometry" />
        </mxCell>
        <mxCell id="2tCtooObjE5uAYLN7BbM-1" value="" style="shape=cylinder3;whiteSpace=wrap;html=1;boundedLbl=1;backgroundOutline=1;size=15;" vertex="1" parent="1">
          <mxGeometry x="170" y="280" width="60" height="80" as="geometry" />
        </mxCell>
        <mxCell id="2tCtooObjE5uAYLN7BbM-2" value="" style="ellipse;shape=cloud;whiteSpace=wrap;html=1;" vertex="1" parent="1">
          <mxGeometry x="450" y="280" width="120" height="80" as="geometry" />
        </mxCell>
        <mxCell id="2tCtooObjE5uAYLN7BbM-4" value="" style="shape=tape;whiteSpace=wrap;html=1;" vertex="1" parent="1">
          <mxGeometry x="260" y="460" width="120" height="100" as="geometry" />
        </mxCell>
      </root>
    </mxGraphModel>
  </diagram>
</mxfile>
